<svg width="31" height="31" viewBox="0 0 31 31" fill="none" xmlns="http://www.w3.org/2000/svg">
<path d="M13.1508 3.71997C5.31898 3.71997 0.619995 10.0024 0.619995 13.144C0.619995 16.2855 2.18612 18.6415 5.31898 18.6415C8.45184 18.6415 10.0186 19.4264 10.0186 21.7824C10.0186 24.9234 12.3678 27.2794 15.5006 27.2794C25.6823 27.2794 30.3806 21.7824 30.3806 16.2855C30.38 6.86151 22.5469 3.71997 13.1508 3.71997ZM11.1929 6.86151C11.4503 6.86167 11.7053 6.91259 11.9431 7.01136C12.1809 7.11012 12.3969 7.25479 12.5787 7.4371C12.7606 7.61941 12.9047 7.83577 13.0029 8.07382C13.101 8.31187 13.1513 8.56694 13.1508 8.82443C13.1508 9.90943 12.2741 10.788 11.1929 10.788C10.1116 10.788 9.2349 9.90881 9.2349 8.82443C9.23441 8.56694 9.28468 8.31187 9.38284 8.07382C9.48101 7.83577 9.62513 7.61941 9.80698 7.4371C9.98882 7.25479 10.2048 7.11012 10.4426 7.01136C10.6804 6.91259 10.9354 6.86167 11.1929 6.86151ZM17.4573 6.86151C17.7148 6.86167 17.9698 6.91259 18.2076 7.01136C18.4454 7.11012 18.6614 7.25479 18.8432 7.4371C19.0251 7.61941 19.1692 7.83577 19.2673 8.07382C19.3655 8.31187 19.4158 8.56694 19.4153 8.82443C19.4159 9.08198 19.3657 9.33711 19.2675 9.57523C19.1694 9.81335 19.0253 10.0298 18.8434 10.2122C18.6616 10.3945 18.4456 10.5393 18.2077 10.6381C17.9699 10.7369 17.7149 10.7878 17.4573 10.788C17.1998 10.7877 16.9449 10.7367 16.7071 10.6379C16.4694 10.539 16.2534 10.3943 16.0716 10.2119C15.8898 10.0296 15.7458 9.81317 15.6477 9.57509C15.5496 9.33701 15.4994 9.08192 15.5 8.82443C15.4995 8.56699 15.5498 8.31197 15.6479 8.07396C15.746 7.83596 15.8901 7.61962 16.0719 7.43732C16.2536 7.25502 16.4696 7.11034 16.7073 7.01154C16.945 6.91273 17.1999 6.86175 17.4573 6.86151ZM23.7231 10.0024C23.9807 10.0025 24.2357 10.0534 24.4736 10.1522C24.7115 10.2509 24.9276 10.3956 25.1096 10.578C25.2915 10.7604 25.4356 10.9769 25.5338 11.215C25.632 11.4532 25.6822 11.7084 25.6816 11.966C25.6821 12.2235 25.6318 12.4786 25.5336 12.7167C25.4354 12.9548 25.2912 13.1712 25.1093 13.3535C24.9274 13.5358 24.7113 13.6805 24.4735 13.7792C24.2356 13.878 23.9806 13.9288 23.7231 13.9289C23.4656 13.9286 23.2107 13.8777 22.973 13.7789C22.7353 13.6801 22.5194 13.5354 22.3376 13.3531C22.1558 13.1708 22.0117 12.9544 21.9136 12.7164C21.8155 12.4784 21.7652 12.2234 21.7657 11.966C21.7651 11.7085 21.8153 11.4534 21.9134 11.2153C22.0115 10.9772 22.1556 10.7608 22.3374 10.5785C22.5191 10.3961 22.7351 10.2514 22.9729 10.1525C23.2106 10.0537 23.4656 10.0027 23.7231 10.0024ZM5.71082 11.5735C5.96821 11.5738 6.22303 11.6247 6.46071 11.7235C6.6984 11.8222 6.9143 11.9669 7.09607 12.1491C7.27784 12.3313 7.42193 12.5476 7.52009 12.7855C7.61825 13.0235 7.66856 13.2784 7.66816 13.5358C7.66816 14.6208 6.79148 15.4994 5.71082 15.4994C4.63016 15.4994 3.75286 14.6202 3.75286 13.5358C3.75245 13.2784 3.80278 13.0234 3.90098 12.7854C3.99918 12.5474 4.14332 12.3311 4.32516 12.1489C4.50699 11.9666 4.72297 11.822 4.96073 11.7233C5.19849 11.6246 5.45337 11.5737 5.71082 11.5735ZM15.5 19.4264C16.7977 19.4264 17.8492 20.4804 17.8492 21.7831C17.8492 23.0838 16.7977 24.1384 15.5 24.1384C14.2023 24.1384 13.1508 23.0838 13.1508 21.7831C13.1502 21.474 13.2106 21.1679 13.3283 20.8823C13.4461 20.5966 13.619 20.3369 13.8372 20.118C14.0553 19.8992 14.3144 19.7255 14.5998 19.6068C14.8851 19.4881 15.191 19.4268 15.5 19.4264Z" fill="white"/>
</svg>
