<svg width="31" height="25" viewBox="0 0 31 25" fill="none" xmlns="http://www.w3.org/2000/svg">
<path d="M6.2 4.6875C6.2 2.96387 7.59016 1.5625 9.3 1.5625H26.35C28.0598 1.5625 29.45 2.96387 29.45 4.6875V16.4062H24.8V15.625C24.8 14.7607 24.1073 14.0625 23.25 14.0625H20.15C19.2927 14.0625 18.6 14.7607 18.6 15.625V16.4062H12.3467C12.8747 15.4883 13.175 14.4189 13.175 13.2812C13.175 9.8291 10.3995 7.03125 6.975 7.03125C6.71344 7.03125 6.45188 7.0459 6.2 7.08008V4.6875ZM16.1297 21.875C15.8827 20.6934 15.3402 19.624 14.5748 18.75H29.45C29.45 20.4736 28.0598 21.875 26.35 21.875H16.1297ZM3.1 13.2812C3.1 12.2452 3.50826 11.2517 4.23496 10.5191C4.96167 9.78655 5.94729 9.375 6.975 9.375C8.00271 9.375 8.98834 9.78655 9.71504 10.5191C10.4417 11.2517 10.85 12.2452 10.85 13.2812C10.85 14.3173 10.4417 15.3108 9.71504 16.0434C8.98834 16.7759 8.00271 17.1875 6.975 17.1875C5.94729 17.1875 4.96167 16.7759 4.23496 16.0434C3.50826 15.3108 3.1 14.3173 3.1 13.2812ZM0 23.4375C0 20.8496 2.08281 18.75 4.65 18.75H9.3C11.8672 18.75 13.95 20.8496 13.95 23.4375C13.95 24.3018 13.2573 25 12.4 25H1.55C0.692656 25 0 24.3018 0 23.4375Z" fill="white"/>
</svg>
