<svg width="31" height="31" viewBox="0 0 31 31" fill="none" xmlns="http://www.w3.org/2000/svg">
<path fill-rule="evenodd" clip-rule="evenodd" d="M7.75003 3.87509C5.96624 3.87509 4.35294 4.59713 3.18269 5.76609L1.35628 3.93967C2.19509 3.09895 3.19174 2.43224 4.28898 1.97782C5.38621 1.52341 6.56242 1.29026 7.75003 1.29176C10.2468 1.29176 12.5085 2.30571 14.1438 3.93967L12.3174 5.76609C11.7184 5.16527 11.0065 4.68887 10.2226 4.36433C9.43874 4.03979 8.59842 3.87352 7.75003 3.87509ZM25.8334 11.6251C25.8334 12.9954 25.289 14.3095 24.3201 15.2785C23.3511 16.2474 22.037 16.7918 20.6667 16.7918C19.2964 16.7918 17.9822 16.2474 17.0133 15.2785C16.0444 14.3095 15.5 12.9954 15.5 11.6251C15.5 10.2548 16.0444 8.94064 17.0133 7.9717C17.9822 7.00277 19.2964 6.45842 20.6667 6.45842C22.037 6.45842 23.3511 7.00277 24.3201 7.9717C25.289 8.94064 25.8334 10.2548 25.8334 11.6251ZM29.7084 21.1485C26.9604 19.5592 23.8412 18.7246 20.6667 18.7293C19.2975 18.7293 17.9645 18.8817 16.6819 19.1697L17.8276 22.6043H22.6042V27.1251H29.7084V21.1485ZM16.43 24.5418H20.6667V27.1251H4.2354L0.790527 16.7918H13.848L14.8167 19.698L16.43 24.5418ZM5.9249 8.50701C6.39249 8.03813 7.03703 7.75009 7.75003 7.75009C8.46303 7.75009 9.10757 8.03813 9.57644 8.50701L11.4054 6.68059C10.9255 6.20048 10.3556 5.81966 9.72838 5.55991C9.10116 5.30016 8.4289 5.16656 7.75003 5.16675C6.37985 5.16705 5.06591 5.71158 4.09719 6.68059L5.9249 8.50701Z" fill="white"/>
</svg>
