<svg width="25" height="26" viewBox="0 0 25 26" fill="none" xmlns="http://www.w3.org/2000/svg">
<g clip-path="url(#clip0_19_36)">
<path d="M13.1421 1.92355C12.6682 1.65276 12.0832 1.65276 11.6044 1.92355L0.773099 8.11289C0.163836 8.46104 -0.13596 9.17668 0.0429504 9.85364C0.221861 10.5306 0.840795 11.0045 1.54193 11.0045H3.08927V21.0621L0.61353 22.9189C0.221861 23.2091 -0.00540385 23.6684 -0.00540385 24.1568C-0.00540385 25.0127 0.686062 25.7041 1.54193 25.7041H23.2046C24.0605 25.7041 24.752 25.0127 24.752 24.1568C24.752 23.6684 24.5247 23.2091 24.133 22.9189L21.6573 21.0621V11.0045H23.2046C23.9058 11.0045 24.5199 10.5306 24.6988 9.85364C24.8777 9.17668 24.5779 8.46104 23.9686 8.11289L13.1373 1.92355H13.1421ZM19.3363 11.0045V21.0621H16.2416V11.0045H19.3363ZM13.9206 11.0045V21.0621H10.8259V11.0045H13.9206ZM8.50494 11.0045V21.0621H5.41027V11.0045H8.50494ZM12.3733 5.5888C12.7837 5.5888 13.1772 5.75182 13.4674 6.042C13.7576 6.33218 13.9206 6.72575 13.9206 7.13613C13.9206 7.54651 13.7576 7.94008 13.4674 8.23026C13.1772 8.52044 12.7837 8.68347 12.3733 8.68347C11.9629 8.68347 11.5693 8.52044 11.2791 8.23026C10.989 7.94008 10.8259 7.54651 10.8259 7.13613C10.8259 6.72575 10.989 6.33218 11.2791 6.042C11.5693 5.75182 11.9629 5.5888 12.3733 5.5888Z" fill="white"/>
</g>
<defs>
<clipPath id="clip0_19_36">
<rect width="24.7574" height="24.7574" fill="white" transform="translate(-0.00836182 0.688965)"/>
</clipPath>
</defs>
</svg>
