<svg width="13" height="10" viewBox="0 0 13 10" fill="none" xmlns="http://www.w3.org/2000/svg">
<path d="M10.4593 0.596581L9.65927 1.22158L6.25302 3.75283L2.84677 1.19658L2.04677 0.571581C1.85831 0.415671 1.62824 0.318481 1.38508 0.29205C1.14191 0.265618 0.896339 0.311108 0.678777 0.422883C0.461214 0.534658 0.281226 0.707807 0.161109 0.920877C0.0409926 1.13395 -0.0139732 1.37758 0.00302149 1.62158V8.86533C0.00302149 9.09076 0.0925748 9.30696 0.251981 9.46637C0.411387 9.62578 0.627587 9.71533 0.853021 9.71533H2.84677V4.89033L6.25302 7.44658L9.65927 4.89033V9.71533H11.653C11.8785 9.71533 12.0947 9.62578 12.2541 9.46637C12.4135 9.30696 12.503 9.09076 12.503 8.86533V1.62158C12.5148 1.37968 12.456 1.13958 12.3338 0.93047C12.2116 0.721356 12.0314 0.552235 11.8149 0.443662C11.5984 0.33509 11.355 0.291743 11.1144 0.31889C10.8737 0.346037 10.6461 0.44251 10.4593 0.596581Z" fill="#25A244"/>
</svg>
